<?xml version="1.0" standalone="no"?>
<!DOCTYPE svg PUBLIC "-//W3C//DTD SVG 20010904//EN"
 "http://www.w3.org/TR/2001/REC-SVG-20010904/DTD/svg10.dtd">
<svg version="1.0" xmlns="http://www.w3.org/2000/svg"
 width="147.000000pt" height="147.000000pt" viewBox="0 0 147.000000 147.000000"
 preserveAspectRatio="xMidYMid meet">
<metadata>
Created by potrace 1.14, written by Peter Selinger 2001-2017
</metadata>
<g transform="translate(0.000000,147.000000) scale(0.100000,-0.100000)"
fill="#000000" stroke="none">
<path d="M639 1429 c-8 -5 -26 -9 -41 -9 -15 0 -33 -7 -42 -15 -8 -8 -32 -21
-53 -28 -28 -9 -42 -21 -55 -49 -10 -20 -27 -42 -37 -48 -12 -6 -23 -26 -27
-48 -3 -20 -15 -47 -26 -59 -11 -11 -18 -32 -17 -45 2 -12 -3 -33 -9 -45 -13
-23 -12 -66 1 -79 11 -11 8 -62 -4 -82 -17 -27 15 -163 47 -201 14 -17 24 -42
24 -61 0 -51 29 -100 97 -167 49 -47 63 -68 63 -90 0 -26 -6 -31 -52 -48 -161
-57 -206 -77 -242 -112 -48 -47 -77 -104 -79 -156 l-2 -42 535 0 535 0 -2 42
c-2 51 -32 111 -77 155 -34 33 -54 42 -216 104 -67 26 -75 32 -78 57 -3 23 7
38 56 85 70 66 102 122 102 175 0 27 7 44 24 60 15 14 30 46 40 89 21 86 20
94 -6 120 -19 19 -20 25 -9 68 9 36 9 53 0 76 -7 16 -11 41 -10 55 2 17 -6 33
-21 45 -15 13 -22 27 -20 45 2 18 -7 36 -33 63 -19 20 -35 43 -35 51 0 15 -43
45 -65 45 -9 0 -25 9 -37 20 -12 11 -34 20 -49 20 -15 0 -30 4 -34 9 -7 12
-128 12 -146 0z"/>
</g>
</svg>
